<?xml version="1.0" encoding="utf-8"?>
<!-- Generator: Adobe Illustrator 22.0.1, SVG Export Plug-In . SVG Version: 6.00 Build 0)  -->
<svg version="1.1" id="Layer_1" xmlns="http://www.w3.org/2000/svg" xmlns:xlink="http://www.w3.org/1999/xlink" x="0px" y="0px"
	 width="48px" height="60px" viewBox="0 0 48 60" style="enable-background:new 0 0 48 60;" xml:space="preserve">
<path d="M45.5,37.9H28.8V2.5c0-0.3-0.2-0.5-0.5-0.5c-0.3,0-0.5,0.2-0.5,0.5v4.9C16.7,11.3,10.1,22.5,12,34.2c0,0.2,0.2,0.4,0.5,0.4
	h15.3V38H2.5C2.2,38,2,38.2,2,38.5v1.8C2,43.4,4.5,46,7.7,46h33.2c0.3,0,0.5-0.2,0.5-0.5c0.3-2.8,1.9-5.3,4.4-6.7
	c0.2-0.1,0.3-0.3,0.2-0.6S45.8,37.9,45.5,37.9z M13,33.6C11.4,23.1,17,13,26.8,8.9c-5.5,7.3-5.4,17.5,0.4,24.7H13z M27.8,9.2v23.6
	C22.3,25.9,22.3,16.1,27.8,9.2z M40.4,45H7.7c-2.6,0-4.7-2.1-4.7-4.7V39h40.9C42,40.4,40.8,42.6,40.4,45z"/>
</svg>
